<?xml version="1.0" standalone="no"?><!-- Generator: Gravit.io --><svg xmlns="http://www.w3.org/2000/svg" xmlns:xlink="http://www.w3.org/1999/xlink" viewBox="0 0 300 300" width="300" height="300"><path d=" M 3.32 20.67 L 66.42 2.87 C 67.56 2.55 68.79 2.69 69.82 3.26 C 71.44 4.16 73.05 5.08 74.64 6.02 C 76.7 7.24 78.74 8.48 80.77 9.74 C 82.24 10.65 83.71 11.58 85.18 12.52 C 86.89 13.61 88.59 14.71 90.29 15.83 C 95.08 18.97 99.84 22.17 104.56 25.43 C 111.21 30.03 117.82 34.68 124.39 39.38 C 133.72 46.06 142.94 52.88 152.06 59.85 C 161.42 67 170.64 74.35 179.7 81.89 C 188.62 89.31 197.33 96.98 205.81 104.9 C 209.88 108.71 213.88 112.61 217.81 116.57 C 221.59 120.38 225.27 124.28 228.86 128.26 C 235.06 135.09 241.04 142.12 246.79 149.33 C 251.33 155 255.62 160.87 259.65 166.91 C 262.9 171.81 265.9 176.87 268.61 182.09 C 270.92 186.55 272.99 191.13 274.82 195.8 C 276.37 199.71 277.87 203.63 279.32 207.58 C 280.63 211.19 281.82 214.85 282.89 218.54 C 284.04 222.59 285.03 226.67 285.87 230.79 C 286.92 235.97 287.83 241.18 288.62 246.41 C 289.86 254.52 290.49 262.72 290.49 270.93 C 290.49 278 289.85 285.05 288.6 292 C 288.41 293.04 287.86 293.98 287.05 294.66 C 286.24 295.33 285.22 295.7 284.17 295.7 L 97.47 295.7 L 86.26 285.43 L 3.32 20.67 Z  M 14.68 26.82 L 67.07 12.04 C 68.07 12.6 69.07 13.18 70.06 13.77 C 72.06 14.95 74.04 16.15 76.01 17.38 C 77.46 18.28 78.9 19.18 80.33 20.1 C 82.01 21.17 83.68 22.26 85.35 23.35 C 90.09 26.46 94.79 29.62 99.45 32.84 C 106.05 37.4 112.62 42.03 119.15 46.7 C 128.41 53.32 137.55 60.09 146.59 67 C 155.86 74.08 164.98 81.35 173.94 88.81 C 182.73 96.11 191.31 103.67 199.66 111.47 C 203.65 115.21 207.57 119.02 211.42 122.91 C 215.1 126.62 218.69 130.42 222.19 134.3 C 228.26 140.99 234.12 147.88 239.76 154.94 C 244.14 160.41 248.27 166.07 252.16 171.9 C 255.23 176.52 258.06 181.31 260.62 186.23 C 262.78 190.42 264.73 194.72 266.45 199.1 C 267.97 202.94 269.44 206.79 270.86 210.67 C 272.1 214.08 273.23 217.53 274.24 221.02 C 275.32 224.84 276.26 228.69 277.05 232.58 C 278.07 237.62 278.96 242.68 279.72 247.76 C 280.9 255.43 281.49 263.17 281.49 270.93 C 281.49 276.21 281.11 281.48 280.34 286.7 L 100.97 286.7 L 94.13 280.43 L 14.68 26.82 Z " fill-rule="evenodd" /><g><path d=" M 170.774 149 L 170.774 149 C 177.164 149 182.352 154.188 182.352 160.578 L 182.352 253.422 C 182.352 259.812 177.164 265 170.774 265 L 170.774 265 C 164.384 265 159.196 259.812 159.196 253.422 L 159.196 160.578 C 159.196 154.188 164.384 149 170.774 149 Z " /><path d=" M 211.046 173.297 L 211.046 173.297 C 217.436 173.297 222.624 178.485 222.624 184.876 L 222.624 229.124 C 222.624 235.515 217.436 240.703 211.046 240.703 L 211.046 240.703 C 204.656 240.703 199.468 235.515 199.468 229.124 L 199.468 184.876 C 199.468 178.485 204.656 173.297 211.046 173.297 Z " /><path d=" M 246.97 195.422 L 246.97 195.422 C 253.36 195.422 258.548 200.61 258.548 207 L 258.548 207 C 258.548 213.39 253.36 218.578 246.97 218.578 L 246.97 218.578 C 240.579 218.578 235.391 213.39 235.391 207 L 235.391 207 C 235.391 200.61 240.579 195.422 246.97 195.422 Z " /><path d=" M 130.502 240.703 L 130.502 240.703 C 124.112 240.703 118.924 235.515 118.924 229.124 L 118.924 184.876 C 118.924 178.485 124.112 173.297 130.502 173.297 L 130.502 173.297 C 136.892 173.297 142.08 178.485 142.08 184.876 L 142.08 229.124 C 142.08 235.515 136.892 240.703 130.502 240.703 Z " /><path d=" M 94.578 218.578 L 94.578 218.578 C 88.188 218.578 83 213.39 83 207 L 83 207 C 83 200.61 88.188 195.422 94.578 195.422 L 94.578 195.422 C 100.968 195.422 106.156 200.61 106.156 207 L 106.156 207 C 106.156 213.39 100.968 218.578 94.578 218.578 Z " /></g></svg>